<svg width="45" height="20" viewBox="0 0 45 20" fill="none" xmlns="http://www.w3.org/2000/svg">
<path fill-rule="evenodd" clip-rule="evenodd" d="M29.9857 15.504C30.8543 15.504 31.453 15.363 32.7446 14.5877L31.8691 12.5141C31.5137 12.6728 31.2107 12.72 30.7207 12.72C29.8966 12.72 29.4289 12.24 29.4289 11.232V5.18401H31.7753V2.71201H29.4289V0H26.2216V11.544C26.2216 14.16 27.5357 15.504 29.9857 15.504ZM11.7368 11.3034C11.3581 14.0154 9.3536 15.5275 6.1686 15.5275C2.6495 15.5275 0.0881348 13.1514 0.0881348 9.14345V8.95144C0.0881348 4.99146 2.69404 2.42344 6.0795 2.42344C9.08634 2.42344 11.7591 4.31942 11.7591 8.80745V9.76743H3.36225C3.45132 11.8554 4.49814 13.0554 6.25769 13.0554C7.74996 13.0554 8.48496 12.3594 8.68542 11.3034H11.7368ZM6.0795 4.82344C4.63179 4.82344 3.65178 5.85542 3.40678 7.63143H8.61859C8.50724 5.73545 7.61633 4.82344 6.0795 4.82344ZM16.6128 15.2635H13.3833V2.71143H16.6128V4.70343C17.1919 3.45542 18.4614 2.42344 20.3992 2.42344C22.6933 2.42344 24.3192 3.91143 24.3192 7.27145V15.2635H21.0896V7.77543C21.0896 6.07145 20.466 5.25542 19.0405 5.25542C17.6596 5.25542 16.6128 6.16743 16.6128 8.01544V15.2635ZM38.6156 19.5357H35.4974L37.5465 13.9917L32.9138 2.71172H36.3883L39.2169 10.2477L41.8228 2.71172H44.9188L38.6156 19.5357Z" fill="white"/>
</svg>
